<svg xmlns="http://www.w3.org/2000/svg" xmlns:xlink="http://www.w3.org/1999/xlink" version="1.1" id="Your_Icon" x="0px" y="0px" width="100px" height="100px" viewBox="0 0 100 100" enable-background="new 0 0 100 100" xml:space="preserve">
<g>
	<g>
		<g>
		</g>
	</g>
	<g>
	</g>
</g>
<path fill="#000000" d="M83,55.938l-2.895-9.673C78.037,40.474,71.6,35.938,65.45,35.938H34.697c-6.15,0-12.587,4.536-14.72,10.531  L17,55.938c-6.551,0-12,5.146-12,11.698v7.302c0,6.551,5.449,12,12,12h3V95h9v-8.062h42V95h9v-8.062h3c6.551,0,12-5.49,12-12.041  v-6.959C95,61.387,89.551,55.938,83,55.938z M25.878,48.35c1.182-3.31,5.606-6.412,9.122-6.412h30c3.516,0,8.087,3.102,9.203,6.208  L76,55.938H24L25.878,48.35z M89,74.938c0,3.135-2.865,6-6,6H17c-3.135,0-6-2.865-6-6v-7c0-3.135,2.865-6,6-6l66,0.014  c3.135,0,6,2.852,6,5.986V74.938z"/>
<g>
	<circle fill="#000000" cx="24.5" cy="71.438" r="4.5"/>
</g>
<g>
	<circle fill="#000000" cx="75.5" cy="71.438" r="4.5"/>
</g>
<g>
	<circle fill="#000000" cx="50" cy="14.322" r="2.208"/>
</g>
<g>
	<circle fill="#000000" cx="50" cy="20.739" r="2.208"/>
</g>
<g>
	<circle fill="#000000" cx="50" cy="27.155" r="2.208"/>
</g>
<g>
	<circle fill="#000000" cx="58.707" cy="14.322" r="2.208"/>
</g>
<g>
	<circle fill="#000000" cx="58.707" cy="20.739" r="2.208"/>
</g>
<g>
	<circle fill="#000000" cx="58.707" cy="27.155" r="2.208"/>
</g>
<g>
	<circle fill="#000000" cx="41.293" cy="14.322" r="2.208"/>
</g>
<g>
	<circle fill="#000000" cx="41.293" cy="20.739" r="2.208"/>
</g>
<g>
	<circle fill="#000000" cx="41.293" cy="27.155" r="2.208"/>
</g>
<g>
	<path fill="#000000" d="M36.084,5.03c0,0,1.014,0,2.252,0h23.325c1.238,0,2.252,0,2.252,0l-0.83,2.962   c-0.418,1.167-1.773,2.122-3.012,2.122H39.927c-1.239,0-2.594-0.955-3.011-2.122L36.084,5.03z"/>
</g>
</svg>