<svg xmlns="http://www.w3.org/2000/svg" xmlns:xlink="http://www.w3.org/1999/xlink" version="1.1" id="Layer_1" x="0px" y="0px" width="100px" height="100px" viewBox="0 0 100 100" enable-background="new 0 0 100 100" xml:space="preserve">
<g>
	<path fill-rule="evenodd" clip-rule="evenodd" d="M77.4,60.776c-3.477,1.96-7.488,3.078-11.758,3.078   c-1.477,0-2.92-0.133-4.322-0.39v0.121h-1.49v-0.442c-0.344-0.086-0.686-0.179-1.025-0.279v0.722h-1.488v-1.22   c-0.348-0.129-0.689-0.264-1.027-0.407v1.627h-1.488v-2.32c-0.346-0.176-0.689-0.36-1.025-0.553v2.873h-1.488v-3.798   c-0.352-0.233-0.693-0.476-1.027-0.727v4.524h-1.489v-5.738c-0.353-0.309-0.694-0.63-1.025-0.96v6.698h-1.488v-7.282h0.918   c-2.265-2.399-4.043-5.267-5.17-8.437c-2.545,0.04-5.09,0.079-7.636,0.118c-0.932,0.015-1.862,0.028-2.796,0.041   c-2.732,0.041-5.466,0.082-8.199,0.12c-1.591,0.022-2.057-0.609-1.523-2.102c1.093-3.057,2.215-4.341,3.339-7.386   c0.047-0.13,0.101-0.256,0.158-0.384c0.145-0.317,0.311-0.626,0.47-0.938c0.233-0.458,0.498-0.847,0.816-1.165   c0.004-0.006,0.011-0.012,0.015-0.018c0.011-0.009,0.021-0.018,0.031-0.028c0.535-0.519,1.221-0.841,2.164-0.947   c2.197-0.247,4.395-0.471,6.593-0.646c1.947-0.152,3.896-0.267,5.852-0.317c0.145-0.604,0.313-1.2,0.504-1.786   c-4.745,0.13-9.466,0.658-14.186,1.214c-1.569,0.184-2.563,0.917-3.265,2.225c-0.231,0.43-0.5,0.847-0.672,1.3   c-1.354,3.583-2.709,5.405-4.015,9.007c-0.227,0.621-0.51,0.803-1.088,0.615c-0.023-0.078-0.049-0.124-0.05-0.168   c-0.008-0.539-0.012-1.076-0.017-1.613c-0.008-1.03-0.325-1.368-1.352-1.38c-1.223-0.015-2.445-0.007-3.668-0.003   c-1.115,0.003-1.756,0.48-1.979,1.462c-0.315,1.409,0.043,2.455,1.031,2.899c0.785,0.352,1.592,0.659,2.417,0.998   c-2.821,2.041-3.434,3.254-3.434,6.756c0,4.745,0.003,9.487-0.001,14.232c-0.001,1.032,0.295,1.963,0.835,2.841   c0.179,0.289,0.296,0.666,0.302,1.004c0.027,1.931-0.004,3.864,0.018,5.796c0.019,1.398,1.07,2.461,2.458,2.492   c1.102,0.024,4.175,0.031,5.274-0.003c1.019-0.032,1.784-0.549,2.172-1.48c0.2-0.481,0.268-1.043,0.279-1.569   c0.036-1.459,0.013-2.92,0.013-4.413h42.078c0,1.598-0.01,3.156,0.004,4.715c0.014,1.702,1.061,2.747,2.74,2.756   c0.93,0.006,3.766,0.007,4.695,0c1.639-0.015,2.682-1.063,2.691-2.722c0.008-1.834-0.01-3.669,0.012-5.502   c0.004-0.268,0.096-0.58,0.252-0.793c0.729-0.979,1.064-2.066,1.061-3.281C77.396,66.801,77.4,63.789,77.4,60.776z M44.631,56.304   h1.49v7.282h-1.49V56.304z M42.007,56.304h1.488v7.282h-1.488V56.304z M39.381,56.304h1.49v7.282h-1.49V56.304z M36.758,56.304   h1.487v7.282h-1.487V56.304z M34.133,56.304h1.488v7.282h-1.488V56.304z M31.506,56.304h1.49v7.282h-1.49V56.304z M28.883,56.304   h1.488v7.282h-1.488V56.304z M21.301,71.195c-0.935-0.01-1.72-0.786-1.748-1.731c-0.029-0.95,0.785-1.775,1.762-1.782   c1.003-0.006,1.764,0.751,1.761,1.756C23.072,70.425,22.284,71.205,21.301,71.195z M26.928,70.879   c-0.291,0.204-0.643,0.322-1.027,0.317c-0.118-0.001-0.232-0.015-0.344-0.038c-0.61-0.132-1.114-0.591-1.313-1.185   c-0.054-0.162-0.086-0.333-0.093-0.51c-0.014-0.491,0.195-0.946,0.536-1.274c0.32-0.309,0.753-0.505,1.226-0.507   c1.005-0.007,1.766,0.751,1.761,1.755C27.672,70.039,27.378,70.562,26.928,70.879z M26.928,61.878   c-1.539-0.013-3.078-0.004-4.619-0.004c-1.49,0-2.981-0.016-4.472,0.007c-0.642,0.009-0.947-0.147-0.928-0.692   c0.041-1.271,0.002-2.545,0.062-3.814c0.039-0.82,0.467-1.086,1.491-1.068c2.395,0.042,4.786,0.085,7.179,0.136   c0.339,0.008,0.688,0.037,1.012,0.107c0.663,0.145,1.021,0.488,1.017,1.054c-0.009,1.234-0.018,2.469,0.004,3.703   C27.683,61.739,27.451,61.882,26.928,61.878z M61.318,70.724H28.881v-0.293h32.437V70.724z M61.318,70.154H28.881v-0.293h32.437   V70.154z M61.32,69.586H28.881v-0.293H61.32V69.586z M61.32,69.018H28.883v-0.294H61.32V69.018z M64.176,71.195   c-0.969-0.003-1.748-0.793-1.746-1.771c0-0.371,0.105-0.709,0.293-0.987c0.313-0.463,0.844-0.757,1.467-0.755   c0.264,0.001,0.51,0.058,0.732,0.156c0.609,0.274,1.021,0.878,1.02,1.601C65.938,70.405,65.141,71.197,64.176,71.195z    M68.834,71.196c-0.967-0.003-1.746-0.794-1.746-1.772c0-0.988,0.764-1.745,1.76-1.741c0.99,0.002,1.756,0.771,1.754,1.756   C70.598,70.405,69.801,71.2,68.834,71.196z"/>
	<path fill-rule="evenodd" clip-rule="evenodd" d="M65.643,17.872c-9.502,0-17.614,6.065-20.667,14.525   c-0.212,0.586-0.398,1.182-0.559,1.79c-0.481,1.802-0.737,3.697-0.737,5.649c0,2.826,0.535,5.526,1.513,8.01   c1.286,3.274,3.337,6.167,5.933,8.458c0.043,0.04,0.088,0.079,0.135,0.119c0.334,0.289,0.676,0.569,1.027,0.839   c0.48,0.368,0.977,0.719,1.488,1.048c0.336,0.218,0.678,0.425,1.025,0.624c0.484,0.276,0.98,0.535,1.488,0.773   c0.338,0.16,0.68,0.312,1.027,0.452c0.486,0.203,0.984,0.387,1.488,0.551c0.338,0.111,0.68,0.215,1.025,0.31   c0.488,0.135,0.986,0.252,1.49,0.353c0.594,0.12,1.199,0.215,1.813,0.285c0.824,0.095,1.66,0.143,2.51,0.143   c2.875,0,5.621-0.555,8.139-1.563c1.27-0.507,2.477-1.13,3.617-1.854c6.133-3.901,10.209-10.756,10.209-18.547   C87.607,27.726,77.754,17.872,65.643,17.872z M57.451,50c-2.355,0-4.268-1.911-4.268-4.267c0-2.356,2.537-6.269,4.268-8   c1.725,1.726,4.266,5.645,4.266,8C61.717,48.089,59.809,50,57.451,50z M65.645,39.225c-2.357,0-4.27-1.91-4.27-4.268   c0-2.356,2.537-6.269,4.27-8c1.725,1.726,4.266,5.645,4.266,8C69.91,37.315,68,39.225,65.645,39.225z M73.834,50   c-2.355,0-4.266-1.911-4.266-4.267c0-2.356,2.535-6.269,4.266-8c1.727,1.726,4.268,5.645,4.268,8   C78.102,48.089,76.193,50,73.834,50z"/>
</g>
</svg>